HIERARCHY
ROOT Hips
{
	OFFSET 0.00000 0.00000 0.00000
	CHANNELS 6 Xposition Yposition Zposition Zrotation Yrotation Xrotation 
	JOINT LHipJoint
	{
		OFFSET 0 0 0
		CHANNELS 3 Zrotation Yrotation Xrotation
		JOINT LeftHip
		{
			OFFSET 1.74857 -1.85566 0.69197
			CHANNELS 3 Zrotation Yrotation Xrotation
			JOINT LeftKnee
			{
				OFFSET 2.40003 -6.59403 0.00000
				CHANNELS 3 Zrotation Yrotation Xrotation
				JOINT LeftAnkle
				{
					OFFSET 2.82169 -7.75254 0.00000
					CHANNELS 3 Zrotation Yrotation Xrotation
					JOINT LeftToe
					{
						OFFSET 0.16466 -0.45240 2.26890
						CHANNELS 3 Zrotation Yrotation Xrotation
						End Site
						{
							OFFSET 0.00000 -0.00000 1.16486
						}
					}
				}
			}
		}
	}
	JOINT RHipJoint
	{
		OFFSET 0 0 0
		CHANNELS 3 Zrotation Yrotation Xrotation
		JOINT RightHip
		{
			OFFSET -1.64169 -1.85566 0.69197
			CHANNELS 3 Zrotation Yrotation Xrotation
			JOINT RightKnee
			{
				OFFSET -2.41814 -6.64379 0.00000
				CHANNELS 3 Zrotation Yrotation Xrotation
				JOINT RightAnkle
				{
					OFFSET -2.80588 -7.70911 0.00000
					CHANNELS 3 Zrotation Yrotation Xrotation
					JOINT RightToe
					{
						OFFSET -0.19098 -0.52472 2.25401
						CHANNELS 3 Zrotation Yrotation Xrotation
						End Site
						{
							OFFSET -0.00000 -0.00000 1.16333
						}
					}
				}
			}
		}
	}
	JOINT lowerback
	{
		OFFSET 0 0 0
		CHANNELS 3 Zrotation Yrotation Xrotation
		JOINT Chest
		{
			OFFSET -0.02828 2.14690 -0.11061
			CHANNELS 3 Zrotation Yrotation Xrotation
			JOINT Chest2
			{
				OFFSET -0.00167 2.15299 0.00759
				CHANNELS 3 Zrotation Yrotation Xrotation
				JOINT lowerneck
				{
					OFFSET 0 0 0
					CHANNELS 3 Zrotation Yrotation Xrotation
					JOINT Neck
					{
						OFFSET -0.09296 1.90118 0.07197
						CHANNELS 3 Zrotation Yrotation Xrotation
						JOINT Head
						{
							OFFSET 0.08490 1.89526 -0.24604
							CHANNELS 3 Zrotation Yrotation Xrotation
							End Site
							{
								OFFSET 0.03186 1.92109 -0.09483
							}
						}
					}
				}
				JOINT LeftCollar
				{
					OFFSET 0 0 0
					CHANNELS 3 Zrotation Yrotation Xrotation
					JOINT LeftShoulder
					{
						OFFSET 3.21569 1.44644 -0.03720
CHANNELS 3 Zrotation Xrotation Yrotation
						JOINT LeftElbow
						{
OFFSET 0 -5.476510 -0.000000
CHANNELS 3 Zrotation Xrotation Yrotation
							JOINT LeftWrist
							{
OFFSET 0 -3.090580 -0.000000
CHANNELS 3 Zrotation Xrotation Yrotation
								JOINT lhand
								{
									OFFSET 0 0 0
CHANNELS 3 Zrotation Xrotation Yrotation
									JOINT LFingers
									{
OFFSET 0 -0.771610 -0.000000
CHANNELS 3 Zrotation Xrotation Yrotation
										End Site
										{
OFFSET 0 -0.622090 -0.000000
										}
									}
								}
								JOINT LThumb
								{
OFFSET 0 0.000000 0.000000
CHANNELS 3 Zrotation Xrotation Yrotation
									End Site
									{
OFFSET 0 -0.631590 0.631590
									}
								}
							}
						}
					}
				}
				JOINT RightCollar
				{
					OFFSET 0 0 0
					CHANNELS 3 Zrotation Yrotation Xrotation
					JOINT RightShoulder
					{
						OFFSET -3.38693 1.28904 -0.07093
CHANNELS 3 Zrotation Xrotation Yrotation
						JOINT RightElbow
						{
OFFSET 0 -5.141820 -0.000000
CHANNELS 3 Zrotation Xrotation Yrotation
							JOINT RightWrist
							{
OFFSET 0 -3.355650 -0.000000
CHANNELS 3 Zrotation Xrotation Yrotation
								JOINT rhand
								{
									OFFSET 0 0 0
CHANNELS 3 Zrotation Xrotation Yrotation
									JOINT RFingers
									{
OFFSET 0 -0.801040 -0.000000
CHANNELS 3 Zrotation Xrotation Yrotation
										End Site
										{
OFFSET 0 -0.645820 -0.000000
										}
									}
								}
								JOINT RThumb
								{
OFFSET 0 0.000000 0.000000
CHANNELS 3 Zrotation Xrotation Yrotation
									End Site
									{
OFFSET 0 -0.655680 0.655680
									}
								}
							}
						}
					}
				}
			}
		}
	}
}
MOTION
Frames: 7
Frame Time: 0.008333333333333333
-0.412992 17.853082 -2.312937 2.195401 -1.752078 -2.271690 0.000000 0.000000 0.000000 -20.824226 -1.786041 -6.195890 1.914830 8.686259 24.818756 0.946248 4.878095 -20.760613 0.480886 -4.446816 -12.337249 0.000000 0.000000 0.000000 16.881033 6.005787 -9.402813 -2.505836 -9.848552 28.487675 -0.721981 -6.127914 -19.427892 -0.184682 2.767875 -7.633102 0.007741 1.928614 5.765948 -1.076081 2.560826 3.186347 -1.249904 1.289822 0.097334 -4.998958 -3.044837 -0.538304 3.303457 -4.286698 14.986242 1.659301 -2.187184 4.758350 0.000000 0.000000 0.000000 150.636199 -49.085317 73.921166 44.330657 -50.436279 21.721523 2.898798 -61.989545 -23.476496 0.000000 0.000000 0.000000 -7.125000 0.000000 0.000000 -26.393915 51.495497 4.485450 0.000000 0.000000 0.000000 -145.027046 -44.724732 -63.810231 -43.561623 -50.043979 -21.130325 -12.217737 -74.217028 -19.200261 0.000000 0.000000 0.000000 7.125000 0.000000 0.000000 10.385352 10.616868 8.437582
-0.379733 17.857897 -2.351359 2.073693 -1.864828 -2.216786 0.000000 0.000000 0.000000 -20.766106 -1.808099 -6.465925 1.933900 8.726981 24.944881 0.947927 4.793858 -20.724274 0.433306 -4.224040 -11.707855 0.000000 0.000000 0.000000 16.910631 6.162885 -9.461049 -2.467189 -9.778010 28.260783 -0.679722 -6.316823 -19.134098 -0.217127 2.999929 -8.278555 0.148677 1.983788 5.833896 -0.997716 2.641375 3.243537 -1.253895 1.331515 0.122974 -4.848503 -3.075166 -0.377256 3.137909 -4.314287 14.707187 1.585759 -2.202431 4.640430 0.000000 0.000000 0.000000 149.748272 -48.918420 72.269377 45.129810 -50.831914 22.339321 2.743791 -62.922071 -23.761459 0.000000 0.000000 0.000000 -7.125000 0.000000 0.000000 -26.704039 51.724160 4.701741 0.000000 0.000000 0.000000 -144.173990 -44.615000 -62.147198 -44.435204 -50.488733 -21.802132 -12.964311 -74.285242 -19.252674 0.000000 0.000000 0.000000 7.125000 0.000000 0.000000 9.903735 10.490398 8.059527
-0.350045 17.863001 -2.387957 2.206914 -1.914544 -2.033337 0.000000 0.000000 0.000000 -20.999885 -1.877191 -6.795122 1.932685 8.724382 24.936862 0.928365 4.884659 -20.598100 0.446276 -4.285961 -11.882619 0.000000 0.000000 0.000000 16.615137 6.157995 -9.787296 -2.454639 -9.754888 28.186641 -0.661803 -6.300752 -18.935530 -0.248360 3.206990 -8.855662 0.103109 2.001861 5.874207 -1.062731 2.662770 3.265940 -1.297440 1.342243 0.125141 -4.923266 -3.091316 -0.323543 3.364187 -4.363640 14.674785 1.666652 -2.218995 4.629391 0.000000 0.000000 0.000000 148.608084 -49.044470 70.272163 46.822295 -51.630620 23.659041 3.430930 -63.161621 -24.244715 0.000000 0.000000 0.000000 -7.125000 0.000000 0.000000 -26.352570 52.270231 5.000526 0.000000 0.000000 0.000000 -143.008209 -44.766838 -60.528097 -45.899077 -51.201384 -22.937290 -13.864031 -75.237420 -18.826406 0.000000 0.000000 0.000000 7.125000 0.000000 0.000000 9.311823 10.827209 7.499134
-0.333310 17.864441 -2.422331 2.090038 -1.742948 -2.054773 0.000000 0.000000 0.000000 -20.918294 -2.100153 -6.842394 1.929916 8.718626 24.919054 0.923897 4.708475 -20.447125 0.369813 -3.906158 -10.812896 0.000000 0.000000 0.000000 16.669475 6.126579 -9.802971 -2.432891 -9.714813 28.058089 -0.649084 -6.360555 -18.846703 -0.231819 3.099092 -8.554709 0.104913 1.920699 6.178828 -0.904104 2.553643 3.259214 -1.141607 1.285546 -0.060450 -5.265544 -3.074561 -0.040871 3.486901 -4.346829 14.358630 1.767194 -2.224414 4.495015 0.000000 0.000000 0.000000 145.696803 -50.463937 67.785693 51.719709 -53.663024 27.554349 5.031001 -63.222573 -25.309726 0.000000 0.000000 0.000000 -7.125000 0.000000 0.000000 -25.497417 53.503139 5.617158 0.000000 0.000000 0.000000 -140.446963 -46.126679 -58.443595 -49.933229 -52.966629 -26.121329 -16.156138 -73.935811 -19.278443 0.000000 0.000000 0.000000 7.125000 0.000000 0.000000 7.838494 10.117854 6.401341
-0.321452 17.885469 -2.438476 2.110191 -1.720114 -1.861792 0.000000 0.000000 0.000000 -20.994866 -2.244616 -6.655102 1.827764 8.497644 24.236118 0.876065 4.983854 -20.165990 0.398454 -4.052869 -11.225380 0.000000 0.000000 0.000000 16.582163 6.091276 -9.828392 -2.355214 -9.569758 27.594458 -0.624166 -6.379375 -18.595523 -0.223755 3.044785 -8.403514 0.053751 1.933781 6.150475 -0.888778 2.567522 3.111048 -1.100484 1.290837 -0.199980 -5.035780 -3.152434 0.057192 3.286614 -4.436621 14.129251 1.666447 -2.267519 4.403574 0.000000 0.000000 0.000000 138.362723 -53.449813 61.218102 64.733598 -57.433859 38.308464 10.285873 -54.808713 -26.190141 0.000000 0.000000 0.000000 -7.125000 0.000000 0.000000 -20.945648 55.287605 5.461530 0.000000 0.000000 0.000000 -133.770831 -49.344372 -53.822439 -60.439370 -56.417490 -34.708767 -20.188032 -64.895003 -20.553059 0.000000 0.000000 0.000000 7.125000 0.000000 0.000000 5.314517 8.279468 4.512981
-0.318504 17.909106 -2.441922 2.185894 -1.691581 -1.744954 0.000000 0.000000 0.000000 -21.111703 -2.197370 -6.326139 1.712259 8.239051 23.442610 0.825945 5.267232 -19.864973 0.435200 -4.233213 -11.733744 0.000000 0.000000 0.000000 16.501576 6.027551 -9.530496 -2.226625 -9.322942 26.810854 -0.575891 -6.622234 -18.262643 -0.242950 3.171676 -8.757093 0.172522 2.063974 6.159434 -0.981671 2.747746 3.294865 -1.268741 1.384489 -0.001868 -5.015352 -3.473978 -2.114134 3.529349 -4.826372 14.919871 1.676531 -2.422504 5.032748 0.000000 0.000000 0.000000 125.976122 -56.928032 48.992937 84.217619 -59.862964 54.994977 18.793016 -29.627471 -26.659439 0.000000 0.000000 0.000000 -7.125000 0.000000 0.000000 -12.526991 57.477432 3.866495 0.000000 0.000000 0.000000 -121.284709 -53.468863 -44.381005 -78.615301 -59.493177 -50.158049 -26.627318 -46.505840 -20.684210 0.000000 0.000000 0.000000 7.125000 0.000000 0.000000 1.221417 7.087127 1.061480
-0.327269 17.935788 -2.450451 2.002595 -1.526918 -1.511238 0.000000 0.000000 0.000000 -20.898449 -2.391267 -6.206503 1.629757 8.048171 22.860411 0.789480 5.444238 -19.623749 0.409697 -4.108821 -11.382897 0.000000 0.000000 0.000000 16.754175 6.109876 -9.316869 -2.104892 -9.081133 26.049547 -0.520884 -7.059806 -18.011484 -0.240959 3.158919 -8.721501 0.365587 2.118805 6.103987 -0.919028 2.829954 3.011467 -1.321987 1.425084 -0.254746 -4.725074 -3.677869 -2.080046 3.565116 -5.114765 14.305615 1.627764 -2.547283 4.843693 0.000000 0.000000 0.000000 104.575674 -59.870109 28.407792 102.092062 -59.436764 70.451981 27.185837 -1.389038 -24.978468 0.000000 0.000000 0.000000 -7.125000 0.000000 0.000000 -2.677615 57.600598 0.827756 0.000000 0.000000 0.000000 -100.298355 -57.095501 -26.514697 -97.463059 -59.783881 -66.458288 -30.966083 -26.170623 -21.226689 0.000000 0.000000 0.000000 7.125000 0.000000 0.000000 -1.437940 5.617000 -1.290793
